PathFileType	4	(X/Y/Z)	C:\Users\Basilio\Documents\Thesis Gigler\squatting_fais\c3dfiles\041\SLS_pre_back1\markers_experimental.trc
DataRate	CameraRate	NumFrames	NumMarkers	Units	OrigDataRate	OrigDataStartFrame	OrigNumFrames
200.000000	200.000000	4	62	mm	200.000000	434	1738
Frame#	Time	FHD			LBHD			RBHD			C7			T10			CLAV			LSHO			LUUPA			LMUPA			LDUPA			LLEP			LMEP			LRAD			LUL			LRFIN			RSHO			RUPA1			RMUPA			RDUPA			RLEP			RMEP			RRAD			RUL			RUFIN			LASI			RASI			USACR			LSACR			RSACR			LTHI1			LTHI2			LTHI3			LTHI4			LLFC			LMFC			LTIB1			LTIB2			LTIB3			LTIB4			LLMAL			LMMAL			LHEE			LMT1			LMT2			LMT5			RTHI			RTHI2			RTHI3			RTHI4			RLFC			RMFC			RTIB1			RTIB2			RTIB3			RTIB4			RLMAL			RMMAL			RHEE			RMT1			RMT2			RMT5			*61			
		X1	Y1	Z1	X2	Y2	Z2	X3	Y3	Z3	X4	Y4	Z4	X5	Y5	Z5	X6	Y6	Z6	X7	Y7	Z7	X8	Y8	Z8	X9	Y9	Z9	X10	Y10	Z10	X11	Y11	Z11	X12	Y12	Z12	X13	Y13	Z13	X14	Y14	Z14	X15	Y15	Z15	X16	Y16	Z16	X17	Y17	Z17	X18	Y18	Z18	X19	Y19	Z19	X20	Y20	Z20	X21	Y21	Z21	X22	Y22	Z22	X23	Y23	Z23	X24	Y24	Z24	X25	Y25	Z25	X26	Y26	Z26	X27	Y27	Z27	X28	Y28	Z28	X29	Y29	Z29	X30	Y30	Z30	X31	Y31	Z31	X32	Y32	Z32	X33	Y33	Z33	X34	Y34	Z34	X35	Y35	Z35	X36	Y36	Z36	X37	Y37	Z37	X38	Y38	Z38	X39	Y39	Z39	X40	Y40	Z40	X41	Y41	Z41	X42	Y42	Z42	X43	Y43	Z43	X44	Y44	Z44	X45	Y45	Z45	X46	Y46	Z46	X47	Y47	Z47	X48	Y48	Z48	X49	Y49	Z49	X50	Y50	Z50	X51	Y51	Z51	X52	Y52	Z52	X53	Y53	Z53	X54	Y54	Z54	X55	Y55	Z55	X56	Y56	Z56	X57	Y57	Z57	X58	Y58	Z58	X59	Y59	Z59	X60	Y60	Z60	X61	Y61	Z61	X62	Y62	Z62	

435	2.17	-195.3497772216797	1772.304321289063	-1094.741821289063	-372.4211120605469	1705.534057617188	-1169.851196289063	-351.7854309082032	1708.05126953125	-1017.806579589844	-406.9098205566407	1548.732788085938	-1108.935791015625	-414.8764953613282	1235.736083984375	-1097.750854492188	-244.1481323242188	1503.417114257813	-1111.467163085938	-331.8769226074219	1563.225708007813	-1255.31689453125	-211.7321777343751	1518.76611328125	-1368.179809570313	-169.4356689453125	1532.483520507813	-1347.09423828125	-149.8619384765625	1508.062622070313	-1399.385375976563	-102.3760375976563	1497.038696289063	-1410.5654296875	-78.9544143676758	1426.155151367188	-1366.73046875	176.1222534179688	1505.233764648438	-1361.901977539063	167.7707977294922	1491.53662109375	-1433.951416015625	244.5346984863282	1539.400390625	-1374.787841796875	-322.6405639648438	1562.966918945313	-970.290466308594	-181.5104064941407	1519.181396484375	-847.362731933594	-159.6143341064453	1552.409790039063	-878.5274658203127	-113.6676025390625	1538.51123046875	-843.5703125000002	-67.7296600341797	1540.256958007813	-840.959655761719	-50.82455825805665	1464.190673828125	-878.938659667969	196.0072479248047	1545.816284179688	-907.400085449219	194.6529083251954	1543.199096679688	-831.349792480469	274.7150573730469	1568.05029296875	-908.7413330078127	-228.5246887207032	1049.788818359375	-1189.105834960938	-245.8941955566407	1055.663330078125	-961.7999267578127	-417.5542297363282	1123.23974609375	-1092.10888671875	-429.9739685058595	1095.450927734375	-1118.337158203125	-435.1712951660157	1098.36181640625	-1063.8115234375	-326.5554199218751	834.6040649414065	-1244.4375	-288.2257385253907	760.7832641601564	-1228.478271484375	-241.6828308105469	767.8809204101564	-1218.015869140625	-313.3290710449219	706.7796020507814	-1216.6669921875	-290.7113037109376	530.6322021484376	-1180.973510742188	-297.3633422851563	523.8392944335939	-1061.5234375	-285.4995422363282	343.6484680175782	-1104.70458984375	-329.9288940429688	298.6757202148438	-1167.222045898438	-294.5020751953126	293.6381225585938	-1137.304077148438	-310.8966369628907	220.9232635498047	-1098.24169921875	-375.2787475585938	130.5691070556641	-1134.083129882813	-346.2614746093751	139.7752838134766	-1050.2333984375	-444.7322998046876	113.6091995239258	-1095.451782226563	-241.620101928711	61.51128387451173	-1048.375732421875	-231.4142303466797	55.57913208007814	-1093.018920898438	-273.2126770019532	42.73300933837891	-1151.622680664063	-320.4989013671876	792.5378417968752	-875.0045166015627	-272.7664794921876	747.1473388671876	-866.569763183594	-240.4985961914063	754.3468017578126	-870.9122314453127	-283.8584594726563	663.1886596679689	-876.4599609375002	-266.5288696289063	551.7233276367189	-865.598327636719	-243.0115203857422	516.7854003906251	-977.1396484375002	-274.5379943847657	384.9172668457032	-850.2287597656252	-374.8627624511719	335.6138610839844	-837.1563110351565	-331.0981445312501	321.0245056152344	-831.1755981445315	-320.3319396972657	265.0305786132813	-851.2897949218752	-409.6849060058595	171.6754608154297	-830.4660644531252	-368.6961364746094	167.4153442382813	-905.8771972656252	-470.9125061035157	151.8843536376953	-886.9033203125002	-273.9594421386719	63.73019409179689	-864.1690673828127	-274.9216308593751	68.99496459960939	-811.8962402343752	-328.0887451171876	70.3446502685547	-772.282165527344	-4216.578613281251	853.152282714844	-3944.674072265626	
436	2.175	-195.2164611816407	1772.306762695313	-1094.89306640625	-372.1469726562501	1705.350708007813	-1169.998291015625	-351.7179260253907	1708.0029296875	-1017.96337890625	-406.8153076171876	1548.710205078125	-1109.1220703125	-414.8897094726564	1235.73095703125	-1097.889526367188	-244.1212463378907	1503.373901367188	-1111.623168945313	-331.8049011230469	1563.2451171875	-1255.439331054688	-211.5375061035157	1518.822265625	-1368.256958007813	-169.2553863525391	1532.437255859375	-1347.154907226563	-149.6668853759766	1508.0712890625	-1399.473266601563	-102.2371826171875	1497.090576171875	-1410.619262695313	-78.97483825683595	1426.473876953125	-1367.090209960938	176.1849822998047	1505.21875	-1361.685913085938	168.0446166992188	1491.58837890625	-1433.7314453125	244.6566772460938	1539.430419921875	-1374.507568359375	-322.5946655273438	1562.996459960938	-970.4566040039065	-181.3285675048828	1519.223754882813	-847.540466308594	-159.5971374511719	1552.475463867188	-878.6977539062502	-113.5517501831055	1538.626220703125	-843.7310791015627	-67.6130828857422	1540.380859375	-841.1815185546877	-50.53674316406251	1464.131713867188	-878.9313964843752	196.1476593017579	1545.95654296875	-907.758972167969	194.8027954101563	1543.398559570313	-831.743835449219	274.8837585449219	1568.28076171875	-909.184753417969	-228.6559600830079	1049.804443359375	-1189.273559570313	-245.853744506836	1055.603515625	-961.8894653320315	-417.5940551757814	1123.192626953125	-1092.206420898438	-430.0403137207032	1095.425048828125	-1118.400512695313	-435.1760864257814	1098.349487304688	-1063.873168945313	-326.6583557128907	834.498718261719	-1244.4697265625	-288.2607116699219	760.7595825195314	-1228.544555664063	-241.721664428711	767.7895507812501	-1218.120361328125	-313.3081054687501	706.7290039062501	-1216.711547851563	-290.6712646484376	530.6522216796876	-1181.048706054688	-297.1731262207032	523.8086547851564	-1061.549926757813	-285.4971618652344	343.5644836425782	-1104.816650390625	-329.9205017089844	299.0280761718751	-1167.241821289063	-294.5228271484376	293.8581237792969	-1137.270629882813	-310.8502502441407	220.9842224121094	-1098.434692382813	-375.2897338867188	130.6168975830078	-1134.0908203125	-346.2602844238282	139.7528076171875	-1050.212646484375	-444.7329101562501	113.6139373779297	-1095.427490234375	-241.7117309570313	61.64822387695314	-1048.370239257813	-231.3525695800782	55.67136764526369	-1092.808227539063	-273.1984863281251	42.75302505493165	-1151.62744140625	-320.2564392089844	792.510437011719	-875.013854980469	-272.4683532714844	747.1800537109376	-866.5445556640627	-240.0537109375001	754.4006347656251	-871.1022949218752	-283.3332519531251	663.1682739257814	-876.442321777344	-266.0635070800782	552.0809936523439	-865.6737060546877	-243.3427429199219	517.1347656250001	-977.3648681640627	-273.8982849121094	385.0118103027345	-850.3757324218752	-374.4865112304688	335.8291625976563	-837.1441650390627	-330.8225402832032	321.1723327636719	-831.0717773437502	-320.0532531738282	265.2405700683594	-851.3148193359377	-409.3678283691407	171.8479614257813	-830.3870239257815	-369.0701599121094	167.6650695800782	-905.576354980469	-470.7666015625001	152.1478576660157	-886.8060302734377	-273.8657836914063	63.72577285766603	-864.1668090820315	-274.8648376464844	69.02925109863283	-811.8941040039065	-328.0013427734376	70.41739654541017	-772.2132568359377	-4216.967285156251	853.1802978515627	-3944.621337890626	
437	2.18	-195.2260131835938	1772.282104492188	-1094.980590820313	-372.2193908691407	1705.403686523438	-1170.130615234375	-351.6765136718751	1707.90185546875	-1018.055725097656	-406.7198791503907	1548.692626953125	-1109.3134765625	-414.9630737304689	1235.740112304688	-1098.018920898438	-244.0362701416016	1503.329833984375	-1111.841796875	-331.6958923339844	1563.26171875	-1255.618286132813	-211.4518432617188	1518.863647460938	-1368.361572265625	-169.4866790771485	1532.542358398438	-1347.035034179688	-149.4051818847657	1508.015747070313	-1399.627807617188	-101.993766784668	1497.103881835938	-1410.635375976563	-78.77774047851564	1426.539306640625	-1367.110595703125	176.2168579101563	1505.2265625	-1361.523193359375	168.3402252197266	1491.567626953125	-1433.519409179688	244.8349151611329	1539.4453125	-1374.210083007813	-322.5043640136719	1563.0087890625	-970.5986328125002	-181.1226348876953	1519.256591796875	-847.7530517578127	-159.4764862060547	1552.55224609375	-878.8778076171877	-113.5231018066407	1538.9150390625	-843.8294067382815	-67.50617980957033	1540.492797851563	-841.4375610351565	-50.60974121093751	1464.324829101563	-879.272155761719	196.2696685791016	1546.147827148438	-908.1593017578127	194.9507598876954	1543.570068359375	-832.1257934570315	274.9343261718751	1568.526245117188	-909.6328125000002	-228.6510620117188	1049.724853515625	-1189.434448242188	-245.8578033447266	1055.613525390625	-962.0574951171877	-417.7376098632814	1123.205688476563	-1092.2783203125	-430.175506591797	1095.384643554688	-1118.440185546875	-435.2306518554689	1098.320922851563	-1063.944091796875	-326.6854553222657	834.4353637695315	-1244.595336914063	-288.2811584472657	760.7133789062501	-1228.653076171875	-241.7409820556641	767.7517700195314	-1218.131713867188	-313.3452453613282	706.7056884765626	-1216.728393554688	-290.5165100097657	530.6293945312501	-1181.099487304688	-296.9023132324219	523.7577514648439	-1061.66943359375	-285.4194335937501	343.5884399414063	-1104.759399414063	-329.8533325195313	298.6337280273438	-1167.34130859375	-294.3632812500001	293.5316162109376	-1137.416625976563	-310.7933959960938	220.9354553222657	-1098.503051757813	-375.2526855468751	130.5792388916016	-1134.099975585938	-346.2843017578126	139.75830078125	-1050.215576171875	-444.7194824218751	113.6266174316407	-1095.432739257813	-241.7125396728516	61.66112518310548	-1048.383911132813	-231.3782653808594	55.6201515197754	-1092.948852539063	-273.1826477050782	42.73594284057618	-1151.62060546875	-319.8186950683594	792.542419433594	-875.1386718750002	-272.2307434082032	747.2073364257814	-866.6286621093752	-239.6441650390626	754.5081787109376	-871.3283691406252	-282.9087829589844	663.2481079101564	-876.5103759765627	-265.6069030761719	552.0914916992189	-865.6777343750002	-243.0161590576172	517.2770385742189	-977.4260864257815	-273.4747619628907	385.2732238769532	-850.459655761719	-373.8860778808594	336.0381774902344	-837.1838989257815	-330.5361022949219	321.4480895996094	-831.0176391601565	-319.9089050292969	265.3740539550782	-851.2303466796877	-409.0872802734376	172.00146484375	-830.3524169921877	-368.2281494140626	167.8242492675782	-905.7641601562502	-470.6002197265626	152.4794006347657	-886.656188964844	-273.8843994140626	63.7595558166504	-864.1665649414065	-274.7416687011719	69.02127075195314	-811.8391723632815	-327.9519958496094	70.47608184814455	-772.1810302734377	-4216.694335937501	853.0986328125002	-3944.794921875001	
438	2.185	-195.1830139160157	1772.328491210938	-1095.15771484375	-372.1107788085938	1705.285766601563	-1170.329223632813	-351.5811157226563	1707.810546875	-1018.115539550781	-406.6442260742189	1548.6865234375	-1109.418823242188	-414.9985656738282	1235.745483398438	-1098.100830078125	-243.9022674560547	1503.269653320313	-1112.011596679688	-331.6595153808594	1563.255615234375	-1255.755126953125	-211.3299865722657	1518.9462890625	-1368.477661132813	-168.9670715332032	1532.455932617188	-1347.276489257813	-149.1571044921875	1508.061767578125	-1399.640625	-101.8303909301758	1497.127807617188	-1410.678588867188	-78.66767883300783	1426.598022460938	-1367.213623046875	176.2357177734375	1505.212158203125	-1361.315063476563	168.6692504882813	1491.575805664063	-1433.311157226563	244.9599304199219	1539.536254882813	-1373.900756835938	-322.4460449218751	1563.031982421875	-970.786560058594	-180.9565582275391	1519.16015625	-847.894470214844	-159.2950897216797	1552.653198242188	-879.0911254882815	-113.3643188476563	1538.906372070313	-844.0496826171877	-67.4227981567383	1540.610107421875	-841.6992797851565	-50.33608245849611	1464.469970703125	-879.5572509765627	196.4131011962891	1546.255004882813	-908.5068359375002	195.0823822021485	1543.704223632813	-832.508239746094	275.2777709960938	1568.814331054688	-910.0751953125002	-228.7046661376954	1049.69580078125	-1189.575927734375	-245.8405761718751	1055.600708007813	-962.2364501953127	-417.7718505859376	1123.179321289063	-1092.40771484375	-430.2883300781251	1095.409423828125	-1118.483642578125	-435.2527770996095	1098.307983398438	-1063.996337890625	-326.7637634277344	834.3812255859377	-1244.642456054688	-288.3588256835938	760.7019653320314	-1228.688598632813	-241.709457397461	767.5740966796876	-1218.000732421875	-313.3774108886719	706.6439819335939	-1216.752075195313	-290.4693603515626	530.5752563476564	-1181.092651367188	-296.7302246093751	523.7283935546876	-1061.771240234375	-285.4379272460938	343.4997558593751	-1104.792114257813	-329.6418457031251	298.5763244628907	-1167.206787109375	-294.2941284179688	293.4663696289063	-1137.479248046875	-310.6347351074219	220.9261932373047	-1098.48974609375	-375.2449951171876	130.5753173828125	-1134.068237304688	-346.2823181152344	139.7344055175782	-1050.229125976563	-444.6913146972657	113.6290893554688	-1095.4248046875	-241.7236785888672	61.58100891113283	-1048.353393554688	-231.3818664550782	55.71397018432619	-1092.888549804688	-273.1718444824219	42.75326919555665	-1151.6162109375	-319.5488586425782	792.5739746093752	-875.137390136719	-271.9395751953126	747.1182250976564	-866.4180908203127	-239.3458404541016	754.6537475585939	-871.3760986328127	-282.4534606933594	663.2357788085939	-876.6077270507815	-265.0234375000001	552.2731323242189	-865.757019042969	-242.6685028076172	517.3798217773439	-977.524841308594	-273.2074890136719	385.4004516601564	-850.4343872070315	-373.5356140136719	336.2368774414063	-837.268249511719	-330.1653442382813	321.6655578613282	-830.942565917969	-319.7507934570313	265.5455322265626	-851.1520996093752	-408.8750915527345	172.1533203125	-830.257019042969	-368.0566101074219	168.0417938232422	-905.695983886719	-470.4696044921876	152.8186187744141	-886.5531005859377	-273.8526611328126	63.75848770141603	-864.1621704101565	-274.5919799804688	69.03337860107423	-811.8692626953127	-327.9046325683594	70.49951934814455	-772.146423339844	-4216.883300781251	853.1218872070315	-3944.615966796876	
